<svg xmlns="http://www.w3.org/2000/svg" xmlns:xlink="http://www.w3.org/1999/xlink" viewBox="0 0 500 500"><defs><style>.cls-1,.cls-37{fill:none;}.cls-2{isolation:isolate;}.cls-3{fill:#eeab37;}.cls-4{fill:#f3cf4b;}.cls-5{fill:#cbced0;}.cls-6{fill:#ee52a7;}.cls-7{fill:#27333b;}.cls-8{fill:#e68a00;}.cls-9{fill:#121f28;}.cls-10{clip-path:url(#clip-path);}.cls-11{fill:#14212a;}.cls-12{fill:#17232c;}.cls-13{fill:#19262e;}.cls-14{fill:#1b2831;}.cls-15{fill:#232f37;}.cls-16{fill:#e6e6e6;}.cls-17{fill:#dadada;}.cls-18{fill:#bbb;}.cls-19{clip-path:url(#clip-path-2);}.cls-20{fill:#1e2a33;}.cls-21{fill:#0a1216;}.cls-22{fill:#737b80;}.cls-23{fill:#e6007e;}.cls-24{fill:#f594c9;}.cls-25{fill:#1d1d1b;}.cls-26{fill:#f8f8f8;}.cls-27{fill:#0c151a;}.cls-28{fill:#fff;}.cls-29{fill:#ee39a3;}.cls-30{fill:#4a9eff;}.cls-31{fill:#d9dbdd;}.cls-32{fill:#e6037f;}.cls-33{fill:#1f7fed;}.cls-34{fill:#979ca0;}.cls-35{fill:#81888d;}.cls-36{fill:#4d575e;}.cls-37{stroke:#27333b;stroke-miterlimit:10;stroke-width:0.25px;}.cls-38{fill:#b6babc;}.cls-39{fill:#d2e5fb;}.cls-40{fill:#a5ccf8;}.cls-41{fill:#78b2f4;}.cls-42{fill:#4c99f1;}.cls-43{fill:#fce3f1;}.cls-44{fill:#fac7e3;}.cls-45{fill:#f7add6;}.cls-46{fill:#f491c8;}.cls-47{fill:#f275b9;}.cls-48{fill:#d4d7d8;}.cls-49{fill:#aaaeb2;}.cls-50{fill:#7f868b;}.cls-51{fill:#525b62;}.cls-52{fill:#aeb3b6;}.cls-53{fill:#6a7278;}.cls-54{fill:#253139;}.cls-55{fill:url(#Gradiente_sem_nome_2);}.cls-56{fill:#1c1c26;}.cls-57{fill:#fafafa;}</style><clipPath id="clip-path"><path class="cls-1" d="M288.62,191.63v2.89c0,1.58-1,3.16-3.11,4.36a16.71,16.71,0,0,1-15.15,0V196a16.71,16.71,0,0,0,15.15,0C287.58,194.78,288.61,193.21,288.62,191.63Z"/></clipPath><clipPath id="clip-path-2"><path class="cls-1" d="M124.29,286.64v2.9c0,1.58-1.05,3.15-3.12,4.35a16.66,16.66,0,0,1-15.14,0V291a16.69,16.69,0,0,0,15.14,0C123.25,289.8,124.29,288.22,124.29,286.64Z"/></clipPath><linearGradient id="Gradiente_sem_nome_2" x1="215.1" y1="358.03" x2="262.93" y2="310.19" gradientUnits="userSpaceOnUse"><stop offset="0" stop-color="#8b9196"/><stop offset="0.14" stop-color="#7e858a"/><stop offset="0.45" stop-color="#676f75"/><stop offset="0.75" stop-color="#596268"/><stop offset="1" stop-color="#545e64"/></linearGradient></defs><g id="OBJECTS"><g class="cls-2"><path class="cls-3" d="M337.94,95.2l-.33,116.08a3.73,3.73,0,0,1-2.18,3,11.63,11.63,0,0,1-10.56,0,3.73,3.73,0,0,1-2.2-3.08L323,95.15a3.75,3.75,0,0,0,2.21,3.08,11.6,11.6,0,0,0,10.56,0A3.73,3.73,0,0,0,337.94,95.2Z"/><path class="cls-4" d="M335.73,92.11c2.93,1.7,2.94,4.44,0,6.13a11.6,11.6,0,0,1-10.56,0c-2.93-1.69-2.94-4.42,0-6.11A11.65,11.65,0,0,1,335.73,92.11Z"/></g><path class="cls-5" d="M324.87,151.69a11.63,11.63,0,0,0,10.56,0v-7.08a11.63,11.63,0,0,1-10.56,0Z"/><path class="cls-6" d="M324.87,144.61v2a11.63,11.63,0,0,0,10.56,0v-2A11.63,11.63,0,0,1,324.87,144.61Z"/><path class="cls-7" d="M334.47,149.47a12.05,12.05,0,0,1-8.63,0v2.06a12.11,12.11,0,0,0,8.63,0Z"/><g class="cls-2"><path class="cls-8" d="M359,73.18l-.33,116.09a3.71,3.71,0,0,1-2.17,3,11.65,11.65,0,0,1-10.57,0,3.75,3.75,0,0,1-2.2-3.08L344,73.14a3.73,3.73,0,0,0,2.2,3.08,11.65,11.65,0,0,0,10.57,0A3.7,3.7,0,0,0,359,73.18Z"/><path class="cls-4" d="M356.77,70.1c2.93,1.69,3,4.43,0,6.12a11.65,11.65,0,0,1-10.57,0c-2.92-1.69-2.94-4.43,0-6.12A11.63,11.63,0,0,1,356.77,70.1Z"/></g><path class="cls-5" d="M345.91,129.68a11.65,11.65,0,0,0,10.57,0V122.6a11.68,11.68,0,0,1-10.57,0Z"/><path class="cls-6" d="M345.91,122.59v2a11.65,11.65,0,0,0,10.57,0v-2A11.68,11.68,0,0,1,345.91,122.59Z"/><path class="cls-7" d="M355.51,127.46a12.11,12.11,0,0,1-8.63,0v2.06a12.11,12.11,0,0,0,8.63,0Z"/><g class="cls-2"><path class="cls-3" d="M367.93,93.32l-.32,116.08a3.73,3.73,0,0,1-2.18,3,11.63,11.63,0,0,1-10.56,0,3.76,3.76,0,0,1-2.21-3.08L353,93.28a3.75,3.75,0,0,0,2.21,3.08,11.63,11.63,0,0,0,10.56,0A3.69,3.69,0,0,0,367.93,93.32Z"/><path class="cls-4" d="M365.73,90.24c2.93,1.69,2.94,4.43,0,6.12a11.63,11.63,0,0,1-10.56,0c-2.93-1.7-2.94-4.43,0-6.12A11.65,11.65,0,0,1,365.73,90.24Z"/></g><path class="cls-5" d="M354.87,149.81a11.63,11.63,0,0,0,10.56,0v-7.08a11.63,11.63,0,0,1-10.56,0Z"/><path class="cls-6" d="M354.87,142.73v2a11.63,11.63,0,0,0,10.56,0v-2A11.63,11.63,0,0,1,354.87,142.73Z"/><path class="cls-7" d="M364.47,147.59a12.08,12.08,0,0,1-8.64,0v2.06a12.13,12.13,0,0,0,8.64,0Z"/><g class="cls-2"><polygon class="cls-9" points="270.36 195.99 270.35 198.88 242.62 182.87 242.63 179.98 270.36 195.99"/><g class="cls-2"><g class="cls-10"><g class="cls-2"><path class="cls-11" d="M288.62,191.63v0"/><path class="cls-12" d="M288.62,191.72v2.9a4.22,4.22,0,0,1-.07.61v-2.89a4.36,4.36,0,0,0,.07-.62"/><path class="cls-12" d="M288.55,192.34v2.89a3.28,3.28,0,0,1-.18.61v-2.9a3.42,3.42,0,0,0,.18-.6"/><path class="cls-12" d="M288.37,192.94v2.9a4,4,0,0,1-.28.6v-2.89a3.71,3.71,0,0,0,.28-.61"/><path class="cls-13" d="M288.09,193.55v2.89a4.48,4.48,0,0,1-.43.64v-2.89a5.12,5.12,0,0,0,.43-.64"/><path class="cls-13" d="M287.66,194.19v2.89a5.61,5.61,0,0,1-.67.72v-2.9a7.35,7.35,0,0,0,.67-.71"/><path class="cls-14" d="M287,194.9v2.9a8.16,8.16,0,0,1-1.35,1v-2.89a7.66,7.66,0,0,0,1.35-1"/><path class="cls-14" d="M285.64,195.91v2.89l-.13.08a11.86,11.86,0,0,1-2.35,1V197a13.15,13.15,0,0,0,2.35-1,.57.57,0,0,1,.13-.08"/><path class="cls-14" d="M283.16,197v2.89a16.28,16.28,0,0,1-2,.51v-2.9a14.68,14.68,0,0,0,2-.5"/><path class="cls-13" d="M281.13,197.52v2.9c-.45.08-.9.14-1.36.19v-2.9c.47,0,.92-.11,1.37-.19"/><path class="cls-13" d="M279.76,197.71v2.9c-.4,0-.79.06-1.19.08v-2.9c.39,0,.79,0,1.18-.08"/><path class="cls-12" d="M278.58,197.79v2.9h-1.1V197.8c.37,0,.73,0,1.1,0"/><path class="cls-12" d="M277.48,197.8v2.89l-1.05-.05v-2.9c.35,0,.71,0,1.06.06"/><path class="cls-12" d="M276.42,197.74v2.9c-.35,0-.7-.07-1-.12v-2.9l1,.12"/><path class="cls-11" d="M275.38,197.62v2.9c-.36-.05-.72-.11-1.07-.19v-2.89c.35.07.71.13,1.06.18"/><path class="cls-11" d="M274.32,197.44v2.89c-.38-.07-.75-.17-1.11-.27v-2.89q.54.15,1.11.27"/><path class="cls-9" d="M273.21,197.17v2.89a13.22,13.22,0,0,1-1.3-.44v-2.89c.41.16.85.31,1.3.44"/><path class="cls-9" d="M271.91,196.73v2.89a11.06,11.06,0,0,1-1.55-.74V196a11.68,11.68,0,0,0,1.55.74"/></g></g></g><path class="cls-15" d="M285.46,187.21c4.19,2.43,4.21,6.35.05,8.78a16.71,16.71,0,0,1-15.15,0l-27.73-16,15.1-8.78Z"/></g><g class="cls-2"><polygon class="cls-16" points="280.48 136.39 275.52 139.27 270.54 136.39 275.49 133.52 280.48 136.39"/><polygon class="cls-17" points="280.48 136.39 280.3 189.75 275.35 192.63 275.52 139.27 280.48 136.39"/><polygon class="cls-18" points="275.52 139.27 275.35 192.63 270.36 189.75 270.54 136.39 275.52 139.27"/></g><g class="cls-2"><polygon class="cls-16" points="260.11 124.64 255.16 127.51 250.17 124.64 255.13 121.76 260.11 124.64"/><polygon class="cls-17" points="260.11 124.64 259.93 177.99 254.98 180.87 255.16 127.51 260.11 124.64"/><polygon class="cls-18" points="255.16 127.51 254.98 180.87 250 177.99 250.17 124.64 255.16 127.51"/></g><polygon class="cls-15" points="115.77 279.13 264.97 192.87 249.59 183.99 100.38 270.25 115.77 279.13"/><polygon class="cls-9" points="264.97 192.87 264.96 195.77 115.76 282.02 115.77 279.13 264.97 192.87"/><g class="cls-2"><polygon class="cls-9" points="106.04 291 106.03 293.9 78.3 277.88 78.31 274.99 106.04 291"/><g class="cls-2"><g class="cls-19"><g class="cls-2"><path class="cls-11" d="M124.29,286.64v2.9s0,.06,0,.09v-3"/><path class="cls-12" d="M124.29,286.74v2.89a3.27,3.27,0,0,1-.07.62v-2.9a3.17,3.17,0,0,0,.07-.61"/><path class="cls-12" d="M124.22,287.35v2.9a3.38,3.38,0,0,1-.17.6V288a4.24,4.24,0,0,0,.17-.61"/><path class="cls-12" d="M124.05,288v2.89a4.78,4.78,0,0,1-.28.61v-2.9a4.12,4.12,0,0,0,.29-.6"/><path class="cls-13" d="M123.76,288.56v2.9a5.21,5.21,0,0,1-.44.64v-2.9a3.77,3.77,0,0,0,.43-.64"/><path class="cls-13" d="M123.33,289.2v2.9a6.18,6.18,0,0,1-.66.71v-2.89a5.52,5.52,0,0,0,.66-.72"/><path class="cls-14" d="M122.67,289.92v2.89a8.29,8.29,0,0,1-1.36,1v-2.9a8.7,8.7,0,0,0,1.36-1"/><path class="cls-14" d="M121.31,290.92v2.9l-.13.07a12.12,12.12,0,0,1-2.34,1V292a11.37,11.37,0,0,0,2.35-1l.13-.08"/><path class="cls-14" d="M118.83,292v2.9a14.68,14.68,0,0,1-2,.5v-2.89a15.7,15.7,0,0,0,2-.51"/><path class="cls-13" d="M116.81,292.54v2.89c-.45.08-.91.15-1.37.19v-2.89c.46-.05.92-.11,1.37-.19"/><path class="cls-13" d="M115.44,292.73v2.89c-.39,0-.79.07-1.19.08v-2.89c.4,0,.8,0,1.19-.08"/><path class="cls-12" d="M114.25,292.81v2.89c-.36,0-.73,0-1.09,0v-2.9h1.09"/><path class="cls-12" d="M113.16,292.81v2.9c-.35,0-.71,0-1.06-.06v-2.9c.35,0,.7.05,1.06.06"/><path class="cls-12" d="M112.1,292.75v2.9c-.35,0-.69-.07-1-.12v-2.89c.34.05.69.09,1,.11"/><path class="cls-11" d="M111.06,292.64v2.89c-.36,0-.71-.11-1.06-.18v-2.9c.35.08.7.14,1.06.19"/><path class="cls-11" d="M110,292.45v2.9c-.38-.08-.75-.17-1.12-.27v-2.9c.37.1.74.2,1.12.27"/><path class="cls-9" d="M108.88,292.18v2.9c-.44-.13-.88-.28-1.3-.44v-2.9c.42.17.86.31,1.3.44"/><path class="cls-9" d="M107.58,291.74v2.9a13.71,13.71,0,0,1-1.54-.74V291a10.94,10.94,0,0,0,1.54.74"/></g></g></g><path class="cls-15" d="M121.13,282.23c4.2,2.42,4.22,6.35.05,8.77A16.69,16.69,0,0,1,106,291L78.31,275l15.09-8.77Z"/></g><g class="cls-2"><polygon class="cls-16" points="116.15 231.41 111.2 234.29 106.22 231.41 111.17 228.53 116.15 231.41"/><polygon class="cls-17" points="116.15 231.41 115.98 284.77 111.02 287.64 111.2 234.29 116.15 231.41"/><polygon class="cls-18" points="111.2 234.29 111.02 287.64 106.04 284.77 106.22 231.41 111.2 234.29"/></g><g class="cls-2"><polygon class="cls-16" points="95.79 219.65 90.83 222.53 85.85 219.65 90.8 216.77 95.79 219.65"/><polygon class="cls-17" points="95.79 219.65 95.61 273.01 90.66 275.89 90.83 222.53 95.79 219.65"/><polygon class="cls-18" points="90.83 222.53 90.66 275.89 85.67 273.01 85.85 219.65 90.83 222.53"/></g><path class="cls-9" d="M246.64,102.67c6.1,3.52,11,12.06,11,19.07a10.8,10.8,0,0,1-.79,4.22c-1.63,3.76-5.63,4.78-10.3,2.09-6.1-3.52-11-12.06-11-19.07S240.54,99.14,246.64,102.67Z"/><path class="cls-7" d="M275.7,116.46l-21.28,12.36a5.93,5.93,0,0,0,2.44-2.86,10.82,10.82,0,0,0,.79-4.23c0-7-4.94-15.59-11-19.11l21.3-12.32c6.1,3.52,11,12.06,11,19.07a10.5,10.5,0,0,1-.79,4.23A6,6,0,0,1,275.7,116.46Z"/><path class="cls-7" d="M257.92,131.39,279.2,119a9.51,9.51,0,0,1,2,1.62,12.19,12.19,0,0,1,3.47,7.91l-21.27,12.37A12.28,12.28,0,0,0,260,133,9.57,9.57,0,0,0,257.92,131.39Z"/><path class="cls-18" d="M257.92,131.39a9.57,9.57,0,0,1,2,1.62,12.28,12.28,0,0,1,3.48,7.92c0,3.5-2.49,4.92-5.54,3.16a12.14,12.14,0,0,1-5.51-9.54C252.39,131.05,254.87,129.63,257.92,131.39Z"/><path class="cls-9" d="M246.64,102.67c-6.1-3.53-11.07-.7-11.09,6.31s4.91,15.55,11,19.07c4.66,2.69,8.66,1.67,10.29-2.09l3.09,7a9.57,9.57,0,0,0-2-1.62c-3.05-1.76-5.53-.34-5.54,3.16a12.14,12.14,0,0,0,5.51,9.54c3.05,1.76,5.53.34,5.54-3.16l0,5.43c0,2.66-1.89,3.74-4.21,2.4l-25.35-14.64a9.2,9.2,0,0,1-4.18-7.24l.1-34Z"/><polygon class="cls-20" points="256.86 125.96 278.13 113.6 281.23 120.64 259.95 133.01 256.86 125.96"/><polygon class="cls-21" points="129.81 188.68 256.5 115.42 256.5 150.4 129.81 223.47 129.81 188.68"/><path class="cls-9" d="M283.46,136.69,114.19,234.58a2.94,2.94,0,0,0,1.22-2.69L284.69,134A3,3,0,0,1,283.46,136.69Z"/><polygon class="cls-20" points="115.42 226.46 284.7 128.56 284.69 133.99 115.41 231.89 115.42 226.46"/><path class="cls-15" d="M256.5,115.42l21.27-12.37c12.49,8.43,14.09,23.33,14.09,23.33l-21.27,12.37Z"/><path class="cls-9" d="M256.5,115.42c12.49,8.42,14.09,23.33,14.09,23.33"/><path class="cls-9" d="M270.59,138.75l-6.15,1.59-7.94-5.66V115.42C269,123.84,270.59,138.75,270.59,138.75Z"/><path class="cls-3" d="M277.54,113.3l5.4,8.94a.33.33,0,0,1-.11.45l-8.11,4.7a.31.31,0,0,1-.43-.11l-5.4-8.94a.32.32,0,0,1,.11-.45l8.1-4.71A.34.34,0,0,1,277.54,113.3Z"/><path class="cls-22" d="M268.34,119l.82,1.36a.06.06,0,0,1,0,.07l-1.23.72a.06.06,0,0,1-.07,0l-.82-1.36s0,0,0-.07l1.23-.72A.07.07,0,0,1,268.34,119Z"/><path class="cls-23" d="M269.41,120.77l.83,1.37a0,0,0,0,1,0,.06l-1.24.72a0,0,0,0,1-.06,0l-.82-1.36a0,0,0,0,1,0-.07l1.24-.71A0,0,0,0,1,269.41,120.77Z"/><path class="cls-24" d="M270.49,122.57l.82,1.36a0,0,0,0,1,0,.07l-1.24.71a0,0,0,0,1-.06,0l-.83-1.37a0,0,0,0,1,0-.06l1.23-.72S270.48,122.54,270.49,122.57Z"/><path class="cls-25" d="M271.57,124.36l.82,1.36a.05.05,0,0,1,0,.07l-1.23.72a.07.07,0,0,1-.07,0l-.82-1.36s0-.06,0-.07l1.23-.72A.07.07,0,0,1,271.57,124.36Z"/><path class="cls-26" d="M272.64,126.15l.83,1.36a.06.06,0,0,1,0,.07l-1.23.72a.06.06,0,0,1-.07,0l-.82-1.36a0,0,0,0,1,0-.07l1.24-.72A0,0,0,0,1,272.64,126.15Z"/><path class="cls-26" d="M282.81,114.07l.14.24a1.27,1.27,0,0,1-.45,1.76h0a1.27,1.27,0,0,1-1.72-.45l-.15-.23a1.29,1.29,0,0,1,.45-1.76h0A1.28,1.28,0,0,1,282.81,114.07Z"/><path class="cls-26" d="M284.61,117.13l.14.24a1.27,1.27,0,0,1-.45,1.76h0a1.28,1.28,0,0,1-1.73-.45l-.14-.23a1.28,1.28,0,0,1,.45-1.76h0A1.28,1.28,0,0,1,284.61,117.13Z"/><path class="cls-27" d="M259.91,134.06a4.21,4.21,0,0,1,1.92,3.32c0,1.23-.87,1.72-1.93,1.1l-5.33-3.07-2.92-1.69v-4.43l2.92,1.69Z"/><path class="cls-20" d="M259.91,134.06,254.58,131l-2.92-1.69-1.13.66,2.92,1.69,5.33,3.08A4.24,4.24,0,0,1,260.7,138a1.34,1.34,0,0,1-.56,1.23l1.13-.65a1.34,1.34,0,0,0,.56-1.24A4.21,4.21,0,0,0,259.91,134.06Z"/><path class="cls-27" d="M258.78,134.72A4.24,4.24,0,0,1,260.7,138c0,1.22-.87,1.71-1.93,1.1l-5.33-3.08-2.92-1.68V130l2.92,1.69Z"/><path class="cls-9" d="M258.79,130.42a12.44,12.44,0,0,1,5.65,9.78c0,3.6-2.55,5.05-5.68,3.24a12.61,12.61,0,0,1-5.32-7.38l5.33,3.08c1.06.61,1.93.12,1.93-1.1a4.24,4.24,0,0,0-1.92-3.32l-5.33-3.08C254.25,129.59,256.34,129,258.79,130.42Z"/><path class="cls-9" d="M257.66,131.08a12.43,12.43,0,0,1,5.65,9.78c0,3.59-2.56,5-5.69,3.24a12.17,12.17,0,0,1-5.31-7.38,9.38,9.38,0,0,1,0-4.42C253.11,130.24,255.21,129.66,257.66,131.08Z"/><path class="cls-20" d="M258.79,130.42c-1.57-.91-3-1-4-.4l-1.13.66c1-.6,2.46-.51,4,.4a12.43,12.43,0,0,1,5.65,9.78,4,4,0,0,1-1.65,3.63l1.13-.66a3.93,3.93,0,0,0,1.65-3.63A12.44,12.44,0,0,0,258.79,130.42Z"/><g class="cls-2"><path class="cls-15" d="M131.06,200.58l121-70c1.14-.66,2.72-.56,4.46.44l-121,70C133.78,200,132.2,199.92,131.06,200.58Z"/><path class="cls-18" d="M135.52,201a13.76,13.76,0,0,1,6.25,10.82c0,4-2.82,5.59-6.29,3.59a13.79,13.79,0,0,1-6.25-10.82C129.25,200.63,132.06,199,135.52,201Z"/><path class="cls-26" d="M261,145.87l-121,70c1.13-.66,1.83-2.05,1.83-4A13.76,13.76,0,0,0,135.52,201l121-70a13.77,13.77,0,0,1,6.25,10.83C262.81,143.82,262.11,145.21,261,145.87Z"/></g><path class="cls-20" d="M135.46,201.61c-1.58-.91-3-1-4-.39l-1.13.65c1-.59,2.45-.51,4,.4a12.46,12.46,0,0,1,5.65,9.78,4,4,0,0,1-1.66,3.64l1.13-.66a4,4,0,0,0,1.66-3.64A12.46,12.46,0,0,0,135.46,201.61Z"/><path class="cls-9" d="M134.33,202.27a12.46,12.46,0,0,1,5.65,9.78c0,3.6-2.56,5-5.69,3.24a12.62,12.62,0,0,1-5.32-7.38L134.3,211c1.07.62,1.93.12,1.93-1.1a4.19,4.19,0,0,0-1.92-3.32L129,203.49C129.78,201.44,131.87,200.85,134.33,202.27Z"/><path class="cls-20" d="M134.31,206.57,129,203.49l-2.92-1.69-1.13.66,2.92,1.69,5.33,3.07a4.22,4.22,0,0,1,1.92,3.33,1.32,1.32,0,0,1-.56,1.23l1.13-.65a1.34,1.34,0,0,0,.56-1.24A4.19,4.19,0,0,0,134.31,206.57Z"/><path class="cls-27" d="M133.18,207.22a4.22,4.22,0,0,1,1.92,3.33c0,1.22-.87,1.71-1.93,1.1l-5.33-3.08-2.92-1.68v-4.43l2.92,1.69Z"/><polygon class="cls-15" points="81.76 178.45 251.04 80.56 267.91 90.3 98.64 188.19 81.76 178.45"/><path class="cls-9" d="M254.46,128.8a6,6,0,0,0,2.4-2.84l1.76,4"/><g class="cls-2"><path class="cls-7" d="M69.06,165l25-14.54a.9.9,0,0,1,.44-.11,19,19,0,0,1,9.09,2.87l-25,14.54a18.92,18.92,0,0,0-9.09-2.86A.76.76,0,0,0,69.06,165Z"/><polygon class="cls-20" points="88.69 177.68 113.72 163.14 113.71 167.9 88.68 182.45 88.69 177.68"/><path class="cls-9" d="M78.58,167.74a38.07,38.07,0,0,1,9.19,7.72,3.59,3.59,0,0,1,.92,2.22v4.77l-6.92-4-.09,34-9.75-5.63a6.86,6.86,0,0,1-3.43-6l.09-34.8c0-.7.36-1.15.91-1.14A18.92,18.92,0,0,1,78.58,167.74Z"/><path class="cls-7" d="M78.58,167.74l25-14.54a37.84,37.84,0,0,1,9.19,7.72,3.59,3.59,0,0,1,.92,2.22l-25,14.54a3.59,3.59,0,0,0-.92-2.22A38.07,38.07,0,0,0,78.58,167.74Z"/></g><g class="cls-2"><path class="cls-7" d="M213.3,81.64l25-14.55a.9.9,0,0,1,.44-.11,19,19,0,0,1,9.09,2.87l-25,14.55a18.88,18.88,0,0,0-9.09-2.87A.8.8,0,0,0,213.3,81.64Z"/><polygon class="cls-20" points="232.94 94.33 257.97 79.79 257.95 84.55 232.93 99.1 232.94 94.33"/><path class="cls-9" d="M222.83,84.4A37.56,37.56,0,0,1,232,92.11a3.57,3.57,0,0,1,.93,2.23V99.1l-6.92-4-13.28,7.6.1-20c0-.71.35-1.16.91-1.15A18.88,18.88,0,0,1,222.83,84.4Z"/><path class="cls-7" d="M222.83,84.4l25-14.55A38.05,38.05,0,0,1,257,77.57a3.54,3.54,0,0,1,.93,2.22l-25,14.55a3.57,3.57,0,0,0-.93-2.23A37.56,37.56,0,0,0,222.83,84.4Z"/></g><polygon class="cls-21" points="129.81 191.69 129.81 188.68 256.5 115.42 256.5 118.42 129.81 191.69"/><g class="cls-2"><polygon class="cls-15" points="129.81 191.69 256.5 118.42 259.67 121.45 132.98 194.71 129.81 191.69"/><path class="cls-21" d="M129.81,191.69l3.17,3a6.72,6.72,0,0,1,2.07,4.51l-5.24-5Z"/><path class="cls-7" d="M133,194.71l126.69-73.26a6.74,6.74,0,0,1,2.07,4.51L135.05,199.22A6.72,6.72,0,0,0,133,194.71Z"/></g><path class="cls-7" d="M246.61,102.62l-126.7,73.21c4.36,2.52,8.12,7.6,9.9,12.85L256.5,115.42C254.71,110.18,251,105.13,246.61,102.62Z"/><path class="cls-20" d="M98.64,188.19c6.1,3.53,11,12.06,11,19.07a10.68,10.68,0,0,1-.78,4.23c-1.63,3.76-5.63,4.78-10.3,2.09-6.1-3.52-11-12.06-11-19.07S92.54,184.67,98.64,188.19Z"/><path class="cls-7" d="M127.7,202l-21.28,12.36a5.93,5.93,0,0,0,2.44-2.86,10.68,10.68,0,0,0,.78-4.23c0-7-4.9-15.54-11-19.07l21.27-12.36c6.1,3.52,11,12.06,11,19.07a10.68,10.68,0,0,1-.79,4.23A6,6,0,0,1,127.7,202Z"/><path class="cls-7" d="M109.92,216.92l21.28-12.36a9.47,9.47,0,0,1,2,1.61,12.2,12.2,0,0,1,3.48,7.92l-21.27,12.37a12.28,12.28,0,0,0-3.48-7.92A9.57,9.57,0,0,0,109.92,216.92Z"/><path class="cls-20" d="M109.92,216.92a9.57,9.57,0,0,1,2,1.62,12.28,12.28,0,0,1,3.48,7.92c0,3.5-2.5,4.92-5.54,3.16a12.13,12.13,0,0,1-5.51-9.54C104.39,216.58,106.87,215.16,109.92,216.92Z"/><polygon class="cls-7" points="108.86 211.49 130.13 199.13 133.22 206.18 111.95 218.54 108.86 211.49"/><path class="cls-9" d="M98.64,188.19c-6.11-3.52-11.07-.69-11.09,6.32s4.91,15.55,11,19.07c4.67,2.69,8.66,1.67,10.3-2.09l3.09,7a9.57,9.57,0,0,0-2-1.62c-3-1.76-5.53-.34-5.54,3.16a12.13,12.13,0,0,0,5.51,9.54c3,1.76,5.53.34,5.54-3.16l0,5.43c0,2.66-1.89,3.73-4.21,2.4L85.85,219.65a9.2,9.2,0,0,1-4.18-7.24l.09-34Z"/><path class="cls-28" d="M281.41,225.88a36,36,0,0,1-18-31.22v-41.4c0-11.66-4.55-18.13-9-22.48L141.53,196c4.48,4.35,9,10.82,9,22.5v41.4a36.06,36.06,0,0,0,18,31.22l43.64,25.19L325,251.08Z"/><path class="cls-29" d="M254.7,158.31c0-11.66-4.55-18.13-9-22.48L144,194.6c4.48,4.35,9,10.82,9,22.5v11.48L254.7,169.77Z"/><path class="cls-7" d="M254.7,199.71V169.77L153,228.58V258.5a36.05,36.05,0,0,0,7.24,21.66l101.64-58.81A36.07,36.07,0,0,1,254.7,199.71Z"/><polygon class="cls-29" points="311.6 253.38 277.93 233.94 176.29 292.74 209.92 312.15 311.6 253.38"/><path class="cls-30" d="M272.72,230.93a36.05,36.05,0,0,1-10.8-9.58L160.28,280.16a36.05,36.05,0,0,0,10.78,9.56l5.23,3,101.64-58.8Z"/><path class="cls-31" d="M254.36,130.78,141.53,196a29.34,29.34,0,0,1,5.39,6.91L259.74,137.7A29.59,29.59,0,0,0,254.36,130.78Z"/><path class="cls-32" d="M245.67,135.83,144,194.6a29.59,29.59,0,0,1,5.38,6.92L251,142.73A29.23,29.23,0,0,0,245.67,135.83Z"/><ellipse class="cls-5" cx="121.78" cy="287.57" rx="15.16" ry="8.76"/><path class="cls-33" d="M125.74,287.57c0,1.27-1.78,2.29-4,2.29s-4-1-4-2.29,1.77-2.28,4-2.28S125.74,286.31,125.74,287.57Z"/><path class="cls-26" d="M106.62,413.87c0,4.83,6.79,8.75,15.16,8.75s15.16-3.92,15.16-8.75V287.57c0,4.84-6.79,8.76-15.16,8.76s-15.16-3.92-15.16-8.76Z"/><path class="cls-34" d="M115.2,421.76c.68.19,1.39.35,2.12.48V295.94c-.73-.13-1.44-.29-2.12-.48Z"/><path class="cls-6" d="M127.82,355.29a24.62,24.62,0,0,1-6,.73c-4.85,0-9.17-1.32-11.94-3.37V359c2.77,2,7.09,3.36,11.94,3.36a25.12,25.12,0,0,0,6-.72Z"/><ellipse class="cls-5" cx="85.45" cy="300.68" rx="15.16" ry="8.76"/><path class="cls-33" d="M89.4,300.68c0,1.26-1.77,2.29-4,2.29s-4-1-4-2.29,1.77-2.28,4-2.28S89.4,299.42,89.4,300.68Z"/><path class="cls-26" d="M70.29,427c0,4.83,6.78,8.75,15.16,8.75s15.16-3.92,15.16-8.75V300.68c0,4.84-6.79,8.76-15.16,8.76s-15.16-3.92-15.16-8.76Z"/><path class="cls-34" d="M78.86,434.86c.68.19,1.39.36,2.13.49V309.05q-1.11-.19-2.13-.48Z"/><path class="cls-6" d="M91.48,368.4a25.1,25.1,0,0,1-6,.72c-4.86,0-9.17-1.31-12-3.36v6.33c2.78,2.05,7.09,3.37,12,3.37a25.1,25.1,0,0,0,6-.72Z"/><g class="cls-2"><polygon class="cls-15" points="303.96 305.01 305.9 303.85 326.62 316.21 324.69 317.37 303.96 305.01"/><polygon class="cls-15" points="332.54 322.06 334.47 320.89 356.59 334.09 354.65 335.25 332.54 322.06"/><polygon class="cls-20" points="354.65 335.25 356.59 334.09 356.57 339.96 354.64 341.12 354.65 335.25"/><polygon class="cls-20" points="332.62 273.49 334.55 272.33 334.47 320.89 332.54 322.06 332.62 273.49"/><polygon class="cls-9" points="354.77 278.76 354.75 281.73 332.62 273.49 332.54 322.06 354.65 335.25 354.64 341.12 303.95 310.88 303.96 305.01 324.69 317.37 324.77 268.81 304.06 251.49 304.08 248.52 354.77 278.76"/><polygon class="cls-20" points="354.77 278.76 356.7 277.6 356.69 280.57 354.75 281.73 354.77 278.76"/><polygon class="cls-15" points="304.08 248.52 306.01 247.36 356.7 277.6 354.77 278.76 304.08 248.52"/></g><g class="cls-2"><polygon class="cls-15" points="384.76 257.14 386.69 255.98 407.42 268.34 405.48 269.5 384.76 257.14"/><polygon class="cls-15" points="413.33 274.19 415.26 273.03 437.38 286.22 435.45 287.38 413.33 274.19"/><polygon class="cls-20" points="435.45 287.38 437.38 286.22 437.37 292.09 435.44 293.25 435.45 287.38"/><polygon class="cls-20" points="413.42 225.62 415.35 224.46 415.26 273.03 413.33 274.19 413.42 225.62"/><polygon class="cls-9" points="435.57 230.89 435.55 233.86 413.42 225.62 413.33 274.19 435.45 287.38 435.44 293.25 384.75 263.01 384.76 257.14 405.48 269.5 405.57 220.94 384.86 203.62 384.88 200.65 435.57 230.89"/><polygon class="cls-20" points="435.57 230.89 437.5 229.73 437.48 232.7 435.55 233.86 435.57 230.89"/><polygon class="cls-15" points="384.88 200.65 386.81 199.49 437.5 229.73 435.57 230.89 384.88 200.65"/></g><g class="cls-2"><polygon class="cls-26" points="304.08 243.37 354.77 273.62 437.48 224.59 386.8 194.35 304.08 243.37"/><polygon class="cls-5" points="304.08 243.37 304.09 248.52 354.78 278.76 354.77 273.62 304.08 243.37"/><polygon class="cls-34" points="354.77 273.62 354.78 278.76 437.5 229.73 437.48 224.59 354.77 273.62"/></g><path class="cls-7" d="M425.52,211.13c-9.63-2.92-25.19-1.71-37.4-8.77l-.41-.24a4.26,4.26,0,0,1-1.81-2.72c-.24-1.31.4-2.12,1.42-1.81l37.82,11.48a3.12,3.12,0,0,1,.78-.69l.1-.07a.37.37,0,0,1,.17-.06L388,196.65h0a1.93,1.93,0,0,0-.74-.09,2.26,2.26,0,0,0-.34.07,1.94,1.94,0,0,0-.3.13l-.11.06a1.66,1.66,0,0,0-.73,1,3,3,0,0,0-.06,1.48,5.08,5.08,0,0,0,.65,1.66,5,5,0,0,0,1.17,1.32,3.07,3.07,0,0,0,.45.28s0,0,0,0l0,0,0,0,.11.06.42.24c.51.28,1.19.66,1.72.91,2.09,1,2.09,1,3.85,1.65.61.23,1.44.52,2.06.71s1.33.4,1.91.56,1.44.39,2.06.53c1.59.37,3,.69,6,1.17,2.38.39,4.81.69,7.9,1.08,2.87.36,5.08.64,7.36,1,.6.11,1.41.26,2,.39.82.19,1.9.48,2.71.7A1.4,1.4,0,0,1,425.52,211.13Z"/><path class="cls-9" d="M425.14,209.07a3.12,3.12,0,0,1,.78-.69l.59,3.24c-.23.14-.68-.08-1-.49Z"/><path class="cls-9" d="M425.14,209.07l.38,2.06c-9.63-2.92-25.19-1.71-37.4-8.77l-.41-.24a4.26,4.26,0,0,1-1.81-2.72c-.24-1.31.4-2.12,1.42-1.81Z"/><path class="cls-7" d="M426.22,208.28l.52,2.87a.37.37,0,0,1-.13.41l-.59-3.25C426.14,208.24,426.21,208.24,426.22,208.28Z"/><polygon class="cls-7" points="425.92 208.38 426.02 208.31 426.61 211.56 426.51 211.62 425.92 208.38"/><path class="cls-26" d="M438.09,213.15a3.78,3.78,0,0,0-.61-1.31,3.35,3.35,0,0,0-.28-.32,1.26,1.26,0,0,0-.2-.2,2.75,2.75,0,0,0-.44-.33h0a2.34,2.34,0,0,0-.42-.18h0l-9.87-3a.41.41,0,0,0-.33,0l-.1.06c-.14.08-.17.26-.11.48a.19.19,0,0,1,0-.07l.72,4h0l0,0,9.87,3-.07,0,.07,0a1.49,1.49,0,0,0,.55.07,1.14,1.14,0,0,0,.53-.16l.11-.06a1.14,1.14,0,0,0,.34-.3,1.5,1.5,0,0,0,.23-.44,1.78,1.78,0,0,0,.09-.6A2.81,2.81,0,0,0,438.09,213.15ZM436,214.89,426.55,212l-.57-3.15,9.48,2.88a1.85,1.85,0,0,1,.29.13,2.82,2.82,0,0,1,1.22,1.81C437.13,214.55,436.71,215.09,436,214.89Z"/><path class="cls-33" d="M435.75,211.87a2.82,2.82,0,0,1,1.22,1.81c.16.87-.26,1.41-.94,1.21L426.55,212c-.15-.85-.42-2.3-.57-3.15l9.48,2.88C435.52,211.8,435.65,211.81,435.75,211.87Z"/><polygon class="cls-9" points="427.47 222.65 427.48 225.74 426.91 226.06 426.9 222.97 427.47 222.65"/><polygon class="cls-9" points="427.47 222.65 426.9 222.97 385.89 199.21 386.46 198.88 427.47 222.65"/><g class="cls-2"><polygon class="cls-35" points="354.02 215.77 396.56 240.49 426.9 222.97 384.36 198.25 354.02 215.77"/><polygon class="cls-22" points="354.02 215.77 354.03 218.86 396.57 243.58 396.56 240.49 354.02 215.77"/><polygon class="cls-36" points="396.56 240.49 396.57 243.58 426.91 226.06 426.9 222.97 396.56 240.49"/></g><polygon class="cls-37" points="359.51 212.6 394.36 232.84 419.2 218.5 384.36 198.25 359.51 212.6"/><polygon class="cls-37" points="364.5 209.72 392.35 225.9 412.21 214.44 384.36 198.25 364.5 209.72"/><polygon class="cls-37" points="365.53 209.12 391.93 224.46 410.76 213.59 384.36 198.25 365.53 209.12"/><polygon class="cls-37" points="366.48 208.58 391.56 223.15 409.44 212.82 384.36 198.25 366.48 208.58"/><polygon class="cls-37" points="372.51 205.09 389.13 214.75 400.98 207.91 384.36 198.25 372.51 205.09"/><polygon class="cls-37" points="375.13 203.58 388.08 211.11 397.31 205.77 384.36 198.25 375.13 203.58"/><polygon class="cls-37" points="378.32 201.74 386.79 206.66 392.84 203.17 384.36 198.25 378.32 201.74"/><g class="cls-2"><polygon class="cls-35" points="354.01 214.95 355.62 215.88 385.96 198.37 384.35 197.43 354.01 214.95"/><polygon class="cls-22" points="354.01 214.95 354.02 215.77 355.63 216.7 355.62 215.88 354.01 214.95"/><polygon class="cls-36" points="355.62 215.88 355.63 216.7 385.97 199.18 385.96 198.37 355.62 215.88"/></g><g class="cls-2"><polygon class="cls-7" points="427.48 220.93 425.93 221.83 384.92 198.06 386.47 197.16 427.48 220.93"/><polygon class="cls-9" points="427.48 220.93 427.47 222.08 425.92 222.98 425.93 221.83 427.48 220.93"/><polygon class="cls-20" points="425.93 221.83 425.92 222.98 384.91 199.22 384.92 198.06 425.93 221.83"/></g><g class="cls-2"><polygon class="cls-7" points="355.62 215.55 357.17 216.45 386.47 199.53 384.92 198.63 355.62 215.55"/><polygon class="cls-9" points="355.62 215.55 355.63 216.7 357.18 217.6 357.17 216.45 355.62 215.55"/><polygon class="cls-20" points="357.17 216.45 357.18 217.6 386.48 200.69 386.47 199.53 357.17 216.45"/></g><path class="cls-5" d="M362,213c0,.15-.21.27-.47.27s-.48-.12-.48-.27.21-.28.48-.28S362,212.89,362,213Z"/><path class="cls-5" d="M381.43,201.84c0,.15-.21.27-.47.27s-.48-.12-.48-.27.21-.28.48-.28S381.43,201.69,381.43,201.84Z"/><polygon class="cls-26" points="372.51 232.18 348.24 246.19 317.82 228.63 342.1 214.62 372.51 232.18"/><polygon class="cls-30" points="369.32 232.25 348.37 244.35 321.01 228.56 341.97 216.46 369.32 232.25"/><polygon class="cls-6" points="348.37 244.35 341.97 216.46 369.32 232.25 348.37 244.35"/><polygon class="cls-7" points="348.37 244.35 329.84 223.41 321.01 228.56 348.37 244.35"/><polygon class="cls-38" points="348.24 260.57 348.24 246.19 372.51 232.18 372.51 246.55 348.24 260.57"/><polygon class="cls-5" points="317.82 228.63 317.82 243.01 348.24 260.57 348.24 246.19 317.82 228.63"/><g class="cls-2"><polygon class="cls-15" points="174.87 381.88 176.8 380.72 197.52 393.08 195.59 394.24 174.87 381.88"/><polygon class="cls-15" points="203.44 398.93 205.38 397.77 227.49 410.96 225.56 412.12 203.44 398.93"/><polygon class="cls-20" points="225.56 412.12 227.49 410.96 227.48 416.83 225.54 417.99 225.56 412.12"/><polygon class="cls-20" points="203.53 350.36 205.46 349.2 205.38 397.77 203.44 398.93 203.53 350.36"/><polygon class="cls-9" points="225.68 355.63 225.66 358.6 203.53 350.36 203.44 398.93 225.56 412.12 225.54 417.99 174.85 387.75 174.87 381.88 195.59 394.24 195.68 345.68 174.97 328.36 174.99 325.39 225.68 355.63"/><polygon class="cls-20" points="225.68 355.63 227.61 354.47 227.59 357.44 225.66 358.6 225.68 355.63"/><polygon class="cls-15" points="174.99 325.39 176.92 324.23 227.61 354.47 225.68 355.63 174.99 325.39"/></g><g class="cls-2"><polygon class="cls-15" points="255.67 334.01 257.6 332.85 278.32 345.21 276.39 346.38 255.67 334.01"/><polygon class="cls-15" points="284.24 351.06 286.17 349.9 308.29 363.09 306.36 364.25 284.24 351.06"/><polygon class="cls-20" points="306.36 364.25 308.29 363.09 308.27 368.96 306.34 370.12 306.36 364.25"/><polygon class="cls-20" points="284.32 302.49 286.26 301.33 286.17 349.9 284.24 351.06 284.32 302.49"/><polygon class="cls-9" points="306.47 307.76 306.46 310.73 284.32 302.49 284.24 351.06 306.36 364.25 306.34 370.12 255.65 339.88 255.67 334.01 276.39 346.38 276.47 297.81 255.77 280.49 255.78 277.52 306.47 307.76"/><polygon class="cls-20" points="306.47 307.76 308.4 306.61 308.39 309.57 306.46 310.73 306.47 307.76"/><polygon class="cls-15" points="255.78 277.52 257.71 276.36 308.4 306.61 306.47 307.76 255.78 277.52"/></g><g class="cls-2"><polygon class="cls-26" points="174.99 320.24 225.68 350.49 308.39 301.46 257.7 271.22 174.99 320.24"/><polygon class="cls-5" points="174.99 320.24 175 325.39 225.69 355.63 225.68 350.49 174.99 320.24"/><polygon class="cls-34" points="225.68 350.49 225.69 355.63 308.4 306.61 308.39 301.46 225.68 350.49"/></g><polygon class="cls-34" points="284.98 302.06 284.98 305.63 265.29 294.27 265.29 290.7 284.98 302.06"/><polygon class="cls-26" points="290.11 299.1 284.98 302.06 265.29 290.7 270.42 287.74 290.11 299.1"/><polygon class="cls-39" points="273.38 290.24 269.63 292.41 266.85 290.8 270.6 288.63 273.38 290.24"/><polygon class="cls-40" points="276.65 292.13 272.9 294.3 270.11 292.69 273.87 290.52 276.65 292.13"/><polygon class="cls-41" points="279.92 294.02 276.17 296.18 273.38 294.57 277.13 292.41 279.92 294.02"/><polygon class="cls-42" points="283.19 295.9 279.43 298.07 276.65 296.46 280.4 294.29 283.19 295.9"/><polygon class="cls-33" points="286.45 297.79 282.7 299.95 279.91 298.35 283.67 296.18 286.45 297.79"/><polygon class="cls-38" points="284.98 305.63 284.98 302.06 290.11 299.1 290.11 302.67 284.98 305.63"/><polygon class="cls-26" points="290.11 299.1 286.56 302.75 262.22 294.93 265.77 291.28 290.11 299.1"/><polygon class="cls-43" points="269.81 293.22 267.22 295.89 263.77 294.78 266.37 292.11 269.81 293.22"/><polygon class="cls-44" points="273.85 294.52 271.25 297.19 267.81 296.08 270.4 293.41 273.85 294.52"/><polygon class="cls-45" points="277.89 295.82 275.29 298.49 271.85 297.38 274.44 294.71 277.89 295.82"/><polygon class="cls-46" points="281.93 297.12 279.33 299.79 275.88 298.68 278.48 296.01 281.93 297.12"/><polygon class="cls-47" points="285.96 298.41 283.37 301.08 279.92 299.98 282.52 297.31 285.96 298.41"/><polygon class="cls-26" points="290.11 299.1 287.66 303.04 261.38 297.67 263.83 293.74 290.11 299.1"/><polygon class="cls-48" points="268.38 295.26 266.58 298.14 262.87 297.38 264.66 294.5 268.38 295.26"/><polygon class="cls-49" points="272.74 296.15 270.94 299.03 267.23 298.27 269.02 295.39 272.74 296.15"/><polygon class="cls-50" points="277.1 297.04 275.31 299.92 271.59 299.16 273.38 296.28 277.1 297.04"/><polygon class="cls-51" points="281.46 297.93 279.67 300.81 275.95 300.05 277.74 297.17 281.46 297.93"/><polygon class="cls-7" points="285.82 298.82 284.03 301.7 280.31 300.94 282.1 298.06 285.82 298.82"/><path class="cls-52" d="M192.41,320.79c-1.06.62-1.93.12-1.93-1.1V291.91a4.25,4.25,0,0,1,1.93-3.32L229.77,267c1.06-.61,1.93-.12,1.93,1.1V295.9a4.28,4.28,0,0,1-1.93,3.33Z"/><path class="cls-53" d="M229.88,298.72,192.3,320.41c-.79.46-1.43,0-1.43-1.08v-27.5a3.42,3.42,0,0,1,1.43-2.73l37.58-21.7c.79-.45,1.43,0,1.43,1.08V296A3.43,3.43,0,0,1,229.88,298.72Z"/><polygon class="cls-54" points="229.84 297.04 192.35 318.68 192.35 290.77 229.84 269.13 229.84 297.04"/><polygon class="cls-26" points="229.76 297.01 192.43 318.56 192.43 290.8 229.76 269.25 229.76 297.01"/><path class="cls-52" d="M259.1,314.4l-38.23,22.07a3.31,3.31,0,0,1-3.33,0l-25.78-14.88a1,1,0,0,1,0-1.67L230,297.85a3.33,3.33,0,0,1,3.32,0l25.78,14.88A1,1,0,0,1,259.1,314.4Z"/><path class="cls-34" d="M219.06,323.31c4.66-2.81,9.39-5.51,14.09-8.28l1.77-1,.89-.51a2.06,2.06,0,0,1,1-.38,1.72,1.72,0,0,1,1,.34l.88.52,1.77,1c2.35,1.36,4.7,2.75,7,4.15-2.38-1.32-4.75-2.65-7.12-4l-1.77-1-.89-.51a1.51,1.51,0,0,0-.89-.3,1.89,1.89,0,0,0-.89.36l-.88.52-1.77,1C228.53,317.93,223.83,320.68,219.06,323.31Z"/><path class="cls-26" d="M247.48,320.06c-4.66,2.82-9.39,5.52-14.09,8.28l-1.77,1-.89.51a2,2,0,0,1-1,.38,1.65,1.65,0,0,1-1-.34l-.88-.51-1.77-1c-2.35-1.37-4.7-2.76-7-4.16,2.38,1.32,4.76,2.65,7.12,4l1.77,1,.89.51a1.48,1.48,0,0,0,.9.3,1.86,1.86,0,0,0,.88-.36l.88-.52,1.77-1C238,325.44,242.71,322.69,247.48,320.06Z"/><path class="cls-53" d="M259.58,313.57a1,1,0,0,1-.48.83l-38.23,22.07a3.31,3.31,0,0,1-3.33,0l-25.78-14.88a1,1,0,0,1-.47-.78h0v1.43a1,1,0,0,0,.48.81l25.78,14.88a3.31,3.31,0,0,0,3.33,0l38.23-22.07a.94.94,0,0,0,.48-.91Z"/><path class="cls-53" d="M242.35,323.51l-5.92,3.42c-.24.13-.21.37.06.52a.43.43,0,0,0,.64.37l5.55-3.21a1.15,1.15,0,0,0,.58-1v-.06A1,1,0,0,0,242.35,323.51Z"/><path class="cls-55" d="M259.58,313.56v0h0Z"/><path class="cls-56" d="M198.9,320.68l-1.76,1a.61.61,0,0,1-.57,0l-1.57-.91c-.17-.09-.19-.24,0-.32l1.77-1a.59.59,0,0,1,.56,0l1.57.9C199,320.45,199.05,320.6,198.9,320.68Zm2.5-1.79-1.57-.9a.64.64,0,0,0-.57,0l-1.77,1c-.14.09-.12.23,0,.33l1.57.91a.67.67,0,0,0,.57,0l1.77-1C201.58,319.13,201.57,319,201.4,318.89Zm2.53-1.46-1.57-.91a.62.62,0,0,0-.56,0l-1.77,1c-.15.08-.13.23,0,.33l1.57.9a.64.64,0,0,0,.57,0l1.76-1C204.12,317.67,204.1,317.52,203.93,317.43Zm2.54-1.47-1.57-.9a.64.64,0,0,0-.57,0l-1.77,1c-.14.08-.12.23,0,.32l1.57.91a.61.61,0,0,0,.57,0l1.77-1C206.65,316.21,206.64,316.06,206.47,316ZM209,314.5l-1.57-.91a.65.65,0,0,0-.56,0l-1.77,1c-.15.09-.13.23,0,.33l1.57.91a.67.67,0,0,0,.57,0l1.76-1C209.19,314.74,209.17,314.6,209,314.5Zm2.54-1.46-1.57-.91a.61.61,0,0,0-.57,0l-1.77,1c-.14.08-.12.23,0,.33l1.57.9a.64.64,0,0,0,.57,0l1.77-1C211.72,313.28,211.71,313.13,211.54,313Zm2.53-1.47-1.57-.9a.62.62,0,0,0-.56,0l-1.77,1c-.15.08-.13.23,0,.32l1.57.91a.61.61,0,0,0,.57,0l1.76-1C214.26,311.82,214.24,311.67,214.07,311.57Zm2.54-1.46L215,309.2a.67.67,0,0,0-.57,0l-1.77,1c-.14.09-.12.23,0,.33l1.57.91a.67.67,0,0,0,.57,0l1.77-1C216.79,310.35,216.78,310.21,216.61,310.11Zm2.53-1.46-1.57-.91a.59.59,0,0,0-.56,0l-1.77,1c-.15.08-.13.23,0,.33l1.57.9a.64.64,0,0,0,.57,0l1.76-1C219.33,308.89,219.31,308.74,219.14,308.65Zm2.54-1.47-1.57-.9a.64.64,0,0,0-.57,0l-1.77,1c-.14.09-.12.24,0,.33l1.57.91a.64.64,0,0,0,.57,0l1.77-1C221.86,307.43,221.85,307.28,221.68,307.18Zm2.53-1.46-1.57-.91a.65.65,0,0,0-.56,0l-1.77,1c-.15.09-.13.23,0,.33l1.57.9a.64.64,0,0,0,.57,0l1.76-1C224.4,306,224.38,305.82,224.21,305.72Zm2.54-1.46-1.57-.91a.61.61,0,0,0-.57,0l-1.77,1c-.14.08-.12.23,0,.33l1.57.9a.61.61,0,0,0,.57,0l1.77-1C226.93,304.5,226.92,304.35,226.75,304.26Zm2.53-1.47-1.57-.9a.62.62,0,0,0-.56,0l-1.77,1c-.15.09-.13.23,0,.33l1.57.91a.67.67,0,0,0,.57,0l1.76-1C229.47,303,229.45,302.89,229.28,302.79Zm3.93-2.26-1.57-.91a.61.61,0,0,0-.57,0l-3.16,1.82c-.14.08-.12.23,0,.33l1.57.9a.64.64,0,0,0,.57,0l3.16-1.82C233.39,300.77,233.37,300.62,233.21,300.53Zm-1.39,1.85,1.57.9a.64.64,0,0,0,.57,0l1.76-1c.15-.09.13-.23,0-.33l-1.56-.91a.67.67,0,0,0-.57,0l-1.77,1C231.63,302.13,231.65,302.28,231.82,302.38Zm-2.54,1.46,1.57.91a.67.67,0,0,0,.57,0l1.77-1c.15-.08.13-.23,0-.33l-1.57-.9a.64.64,0,0,0-.57,0l-1.77,1C229.1,303.6,229.12,303.74,229.28,303.84Zm-2.53,1.47,1.57.9a.61.61,0,0,0,.57,0l1.76-1c.15-.08.13-.23,0-.32l-1.56-.91a.61.61,0,0,0-.57,0l-1.77,1C226.56,305.06,226.58,305.21,226.75,305.31Zm-2.54,1.46,1.57.9a.64.64,0,0,0,.57,0l1.77-1c.15-.09.13-.23,0-.33l-1.57-.91a.67.67,0,0,0-.57,0l-1.77,1C224,306.52,224.05,306.67,224.21,306.77Zm-2.53,1.46,1.57.91a.64.64,0,0,0,.57,0l1.76-1c.15-.08.13-.23,0-.33l-1.56-.9a.64.64,0,0,0-.57,0l-1.77,1C221.49,308,221.51,308.14,221.68,308.23Zm-2.54,1.47,1.57.9a.61.61,0,0,0,.57,0l1.77-1c.14-.08.13-.23,0-.32l-1.57-.91a.61.61,0,0,0-.57,0l-1.77,1C219,309.45,219,309.6,219.14,309.7Zm-2.53,1.46,1.57.91a.67.67,0,0,0,.57,0l1.76-1c.15-.09.13-.23,0-.33l-1.56-.91a.67.67,0,0,0-.57,0l-1.77,1C216.42,310.92,216.44,311.06,216.61,311.16Zm-2.54,1.46,1.57.91a.61.61,0,0,0,.57,0l1.77-1c.14-.08.13-.23,0-.33l-1.57-.9a.64.64,0,0,0-.57,0l-1.77,1C213.89,312.38,213.91,312.53,214.07,312.62Zm-2.53,1.47,1.57.9a.64.64,0,0,0,.57,0l1.76-1c.15-.08.13-.23,0-.32l-1.56-.91a.61.61,0,0,0-.57,0l-1.77,1C211.35,313.84,211.37,314,211.54,314.09ZM209,315.55l1.57.91a.67.67,0,0,0,.57,0l1.77-1c.15-.09.13-.23,0-.33l-1.57-.91a.67.67,0,0,0-.57,0l-1.77,1C208.82,315.31,208.84,315.45,209,315.55ZM206.47,317l1.57.91a.61.61,0,0,0,.57,0l1.76-1c.15-.08.13-.23,0-.33l-1.56-.9a.64.64,0,0,0-.57,0l-1.77,1C206.28,316.77,206.3,316.92,206.47,317Zm-2.54,1.47,1.57.9a.64.64,0,0,0,.57,0l1.77-1c.15-.09.13-.24,0-.33l-1.57-.91a.64.64,0,0,0-.57,0l-1.77,1C203.75,318.23,203.77,318.38,203.93,318.48Zm-2.53,1.46,1.57.91a.67.67,0,0,0,.57,0l1.76-1c.15-.09.13-.23,0-.33l-1.56-.9a.64.64,0,0,0-.57,0l-1.77,1C201.21,319.7,201.23,319.84,201.4,319.94Zm-3.92,2.27,1.57.9a.59.59,0,0,0,.56,0l3.16-1.82c.15-.08.13-.23,0-.33l-1.57-.9a.61.61,0,0,0-.57,0l-3.15,1.82C197.29,322,197.31,322.11,197.48,322.21ZM229.8,306.4l1.57.91a.61.61,0,0,0,.57,0l1.77-1c.14-.08.12-.23,0-.32l-1.57-.91a.61.61,0,0,0-.57,0l-1.77,1C229.62,306.16,229.63,306.31,229.8,306.4Zm-2.53,1.47,1.57.9a.62.62,0,0,0,.56,0l1.77-1c.15-.09.13-.23,0-.33l-1.57-.91a.67.67,0,0,0-.57,0l-1.76,1C227.08,307.62,227.1,307.77,227.27,307.87Zm-2.54,1.46,1.57.91a.67.67,0,0,0,.57,0l1.77-1c.14-.08.12-.23,0-.33L227,308a.64.64,0,0,0-.57,0l-1.77,1C224.55,309.09,224.56,309.23,224.73,309.33Zm-2.53,1.47,1.57.9a.59.59,0,0,0,.56,0l1.77-1c.15-.08.13-.23,0-.32l-1.57-.91a.61.61,0,0,0-.57,0l-1.76,1C222,310.55,222,310.7,222.2,310.8Zm-2.54,1.46,1.57.9a.64.64,0,0,0,.57,0l1.77-1c.14-.09.12-.23,0-.33l-1.57-.91a.67.67,0,0,0-.57,0l-1.77,1C219.48,312,219.49,312.16,219.66,312.26Zm-2.53,1.46,1.57.91a.59.59,0,0,0,.56,0l1.77-1c.15-.08.13-.23,0-.33l-1.57-.9a.64.64,0,0,0-.57,0l-1.76,1C216.94,313.48,217,313.63,217.13,313.72Zm-2.54,1.47,1.57.9a.64.64,0,0,0,.57,0l1.77-1c.14-.08.12-.23,0-.32l-1.57-.91a.61.61,0,0,0-.57,0l-1.77,1C214.41,314.94,214.42,315.09,214.59,315.19Zm-2.53,1.46,1.57.91a.65.65,0,0,0,.56,0l1.77-1c.15-.09.13-.23,0-.33l-1.57-.91a.67.67,0,0,0-.57,0l-1.76,1C211.87,316.41,211.89,316.55,212.06,316.65Zm-2.54,1.46,1.57.91a.61.61,0,0,0,.57,0l1.77-1c.14-.08.12-.23,0-.33l-1.57-.9a.64.64,0,0,0-.57,0l-1.77,1C209.34,317.87,209.35,318,209.52,318.11ZM207,319.58l1.57.9a.62.62,0,0,0,.56,0l1.77-1c.15-.08.13-.23,0-.32l-1.57-.91a.59.59,0,0,0-.56,0l-1.77,1C206.8,319.33,206.82,319.48,207,319.58ZM204.45,321,206,322a.67.67,0,0,0,.57,0l1.77-1c.14-.09.12-.23,0-.33l-1.57-.9a.64.64,0,0,0-.57,0l-1.77,1C204.27,320.8,204.28,320.94,204.45,321Zm-4.49,2.6,1.56.9a.64.64,0,0,0,.57,0l3.73-2.16c.15-.08.13-.23,0-.33l-1.57-.9a.59.59,0,0,0-.56,0l-3.73,2.15C199.77,323.39,199.79,323.54,200,323.64Zm32.38-18.7,1.57.91a.65.65,0,0,0,.56,0l3.73-2.15c.15-.09.13-.23,0-.33l-1.57-.91a.65.65,0,0,0-.56,0l-3.73,2.15C232.15,304.7,232.17,304.84,232.34,304.94ZM231,308.57l1.57.9a.64.64,0,0,0,.57,0l1.77-1c.14-.09.12-.24,0-.33l-1.57-.91a.61.61,0,0,0-.57,0l-1.77,1C230.83,308.32,230.84,308.47,231,308.57ZM228.48,310l1.57.91a.65.65,0,0,0,.56,0l1.77-1c.15-.09.13-.23,0-.33l-1.57-.9a.62.62,0,0,0-.56,0l-1.77,1C228.29,309.79,228.31,309.93,228.48,310Zm-2.54,1.46,1.57.91a.61.61,0,0,0,.57,0l1.77-1c.14-.08.12-.23,0-.33l-1.57-.9a.61.61,0,0,0-.57,0l-1.77,1C225.76,311.25,225.77,311.4,225.94,311.49ZM223.41,313l1.57.9a.62.62,0,0,0,.56,0l1.77-1c.15-.09.13-.23,0-.33l-1.57-.91a.65.65,0,0,0-.56,0l-1.77,1C223.22,312.71,223.24,312.86,223.41,313Zm-2.54,1.46,1.57.91a.67.67,0,0,0,.57,0l1.77-1c.14-.08.12-.23,0-.33l-1.57-.9a.64.64,0,0,0-.57,0l-1.77,1C220.69,314.18,220.7,314.32,220.87,314.42Zm-2.53,1.47,1.57.9a.59.59,0,0,0,.56,0l1.77-1c.15-.08.13-.23,0-.32l-1.57-.91a.59.59,0,0,0-.56,0l-1.77,1C218.15,315.64,218.17,315.79,218.34,315.89Zm-2.54,1.46,1.57.9a.64.64,0,0,0,.57,0l1.77-1c.14-.09.12-.23,0-.33L218.1,316a.67.67,0,0,0-.57,0l-1.77,1C215.62,317.1,215.63,317.25,215.8,317.35Zm-2.53,1.46,1.57.91a.62.62,0,0,0,.56,0l1.77-1c.15-.08.13-.23,0-.33l-1.57-.9a.62.62,0,0,0-.56,0l-1.77,1C213.08,318.57,213.1,318.72,213.27,318.81Zm-2.54,1.47,1.57.9a.61.61,0,0,0,.57,0l1.77-1c.14-.08.12-.23,0-.32L213,319a.61.61,0,0,0-.57,0l-1.77,1C210.55,320,210.56,320.18,210.73,320.28Zm-2.53,1.46,1.57.91a.65.65,0,0,0,.56,0l1.77-1c.15-.09.13-.23,0-.33l-1.57-.91a.65.65,0,0,0-.56,0l-1.77,1C208,321.5,208,321.64,208.2,321.74Zm-5.77,3.33,1.57.9a.64.64,0,0,0,.57,0l5-2.89c.14-.08.12-.23,0-.33l-1.57-.9a.64.64,0,0,0-.57,0l-5,2.89C202.25,324.82,202.27,325,202.43,325.07Zm31.12-18,1.57.91a.59.59,0,0,0,.56,0l5-2.88c.15-.09.13-.23,0-.33l-1.57-.91a.67.67,0,0,0-.57,0l-5,2.89C233.36,306.86,233.38,307,233.55,307.1Zm-24.77,19-1.57-.91a.67.67,0,0,0-.57,0l-1.77,1c-.14.08-.13.23,0,.33l1.57.9a.64.64,0,0,0,.57,0l1.77-1C209,326.32,208.94,326.18,208.78,326.08Zm2.53-1.47-1.57-.9a.59.59,0,0,0-.56,0l-1.77,1c-.15.08-.13.23,0,.32l1.57.91a.59.59,0,0,0,.56,0l1.77-1C211.5,324.86,211.48,324.71,211.31,324.61Zm2.54-1.46-1.57-.9a.64.64,0,0,0-.57,0l-1.77,1c-.14.09-.13.23,0,.33l1.57.91a.67.67,0,0,0,.57,0l1.77-1C214,323.39,214,323.25,213.85,323.15Zm2.53-1.46-1.57-.91a.59.59,0,0,0-.56,0l-1.77,1c-.15.08-.13.23,0,.33l1.57.9a.62.62,0,0,0,.56,0l1.77-1C216.57,321.93,216.55,321.78,216.38,321.69Zm16.6-9.58-1.57-.91a.61.61,0,0,0-.57,0l-1.77,1c-.14.08-.12.23,0,.32l1.57.91a.61.61,0,0,0,.57,0l1.77-1C233.16,312.35,233.15,312.2,233,312.11Zm2.53-1.47-1.57-.9a.62.62,0,0,0-.56,0l-1.77,1c-.15.09-.13.23,0,.33l1.57.91a.67.67,0,0,0,.57,0l1.76-1C235.7,310.89,235.68,310.74,235.51,310.64Zm2.54-1.46-1.57-.91a.64.64,0,0,0-.57,0l-1.77,1c-.14.08-.12.23,0,.33l1.57.9a.64.64,0,0,0,.57,0l1.77-1C238.23,309.42,238.22,309.27,238.05,309.18Zm1.66-1.83-2.05,1.19c-.07,0-.06.1,0,.15l.61.35a.61.61,0,0,0,.57,0l1.76-1c.15-.08.13-.23,0-.33l-.61-.35A.3.3,0,0,0,239.71,307.35Zm3.41-1.1-1.57-.9a.64.64,0,0,0-.57,0l-1.77,1c-.14.09-.12.23,0,.33l1.57.91a.67.67,0,0,0,.57,0l1.77-1C243.3,306.49,243.29,306.35,243.12,306.25Zm-5.53,2.25,2-1.19c.07,0,.06-.1,0-.15l-.62-.35a.59.59,0,0,0-.56,0l-1.77,1c-.15.08-.13.23,0,.32l.61.36A.3.3,0,0,0,237.59,308.5Zm-7.15,5.07-1.56-.91a.67.67,0,0,0-.57,0L215,320.32c-.14.08-.13.23,0,.32l1.57.91a.61.61,0,0,0,.57,0l13.29-7.67C230.63,313.81,230.61,313.67,230.44,313.57Z"/><path class="cls-34" d="M198.9,320.46l-1.76,1a.64.64,0,0,1-.57,0l-1.57-.9c-.17-.1-.19-.24,0-.33l1.77-1a.65.65,0,0,1,.56,0l1.57.91C199,320.23,199.05,320.37,198.9,320.46Zm2.5-1.79-1.57-.91a.61.61,0,0,0-.57,0l-1.77,1c-.14.08-.12.23,0,.33l1.57.9a.61.61,0,0,0,.57,0l1.77-1C201.58,318.91,201.57,318.76,201.4,318.67Zm2.53-1.47-1.57-.9a.62.62,0,0,0-.56,0l-1.77,1c-.15.09-.13.23,0,.33l1.57.91a.64.64,0,0,0,.57,0l1.76-1C204.12,317.45,204.1,317.3,203.93,317.2Zm2.54-1.46-1.57-.91a.67.67,0,0,0-.57,0l-1.77,1c-.14.08-.12.23,0,.33l1.57.9a.64.64,0,0,0,.57,0l1.77-1C206.65,316,206.64,315.84,206.47,315.74Zm2.53-1.46-1.57-.91a.59.59,0,0,0-.56,0l-1.77,1c-.15.08-.13.23,0,.32l1.57.91a.61.61,0,0,0,.57,0l1.76-1C209.19,314.52,209.17,314.37,209,314.28Zm2.54-1.47-1.57-.9a.64.64,0,0,0-.57,0l-1.77,1c-.14.09-.12.23,0,.33l1.57.91a.67.67,0,0,0,.57,0l1.77-1C211.72,313.06,211.71,312.91,211.54,312.81Zm2.53-1.46-1.57-.91a.62.62,0,0,0-.56,0l-1.77,1c-.15.08-.13.23,0,.33l1.57.9a.64.64,0,0,0,.57,0l1.76-1C214.26,311.59,214.24,311.44,214.07,311.35Zm2.54-1.47L215,309a.61.61,0,0,0-.57,0l-1.77,1c-.14.08-.12.23,0,.32l1.57.91a.61.61,0,0,0,.57,0l1.77-1C216.79,310.13,216.78,310,216.61,309.88Zm2.53-1.46-1.57-.9a.62.62,0,0,0-.56,0l-1.77,1c-.15.09-.13.23,0,.33l1.57.91a.67.67,0,0,0,.57,0l1.76-1C219.33,308.66,219.31,308.52,219.14,308.42Zm2.54-1.46-1.57-.91a.61.61,0,0,0-.57,0l-1.77,1c-.14.08-.12.23,0,.33l1.57.9a.64.64,0,0,0,.57,0l1.77-1C221.86,307.2,221.85,307.05,221.68,307Zm2.53-1.47-1.57-.9a.62.62,0,0,0-.56,0l-1.77,1c-.15.08-.13.23,0,.32l1.57.91a.61.61,0,0,0,.57,0l1.76-1C224.4,305.74,224.38,305.59,224.21,305.49Zm2.54-1.46-1.57-.91a.67.67,0,0,0-.57,0l-1.77,1c-.14.09-.12.23,0,.33l1.57.91a.67.67,0,0,0,.57,0l1.77-1C226.93,304.27,226.92,304.13,226.75,304Zm2.53-1.46-1.57-.91a.59.59,0,0,0-.56,0l-1.77,1c-.15.08-.13.23,0,.33l1.57.9a.64.64,0,0,0,.57,0l1.76-1C229.47,302.81,229.45,302.66,229.28,302.57Zm3.93-2.27-1.57-.9a.64.64,0,0,0-.57,0l-3.16,1.82c-.14.09-.12.24,0,.33l1.57.91a.61.61,0,0,0,.57,0l3.16-1.82C233.39,300.55,233.37,300.4,233.21,300.3Zm-1.39,1.85,1.57.91a.61.61,0,0,0,.57,0l1.76-1c.15-.08.13-.23,0-.33l-1.56-.9a.64.64,0,0,0-.57,0l-1.77,1C231.63,301.91,231.65,302.06,231.82,302.15Zm-2.54,1.47,1.57.9a.64.64,0,0,0,.57,0l1.77-1c.15-.08.13-.23,0-.32l-1.57-.91a.61.61,0,0,0-.57,0l-1.77,1C229.1,303.37,229.12,303.52,229.28,303.62Zm-2.53,1.46,1.57.91a.67.67,0,0,0,.57,0l1.76-1c.15-.09.13-.23,0-.33l-1.56-.91a.67.67,0,0,0-.57,0l-1.77,1C226.56,304.84,226.58,305,226.75,305.08Zm-2.54,1.46,1.57.91a.61.61,0,0,0,.57,0l1.77-1c.15-.08.13-.23,0-.33l-1.57-.9a.64.64,0,0,0-.57,0l-1.77,1C224,306.3,224.05,306.45,224.21,306.54ZM221.68,308l1.57.9a.64.64,0,0,0,.57,0l1.76-1c.15-.08.13-.23,0-.32l-1.56-.91a.61.61,0,0,0-.57,0l-1.77,1C221.49,307.76,221.51,307.91,221.68,308Zm-2.54,1.46,1.57.91a.67.67,0,0,0,.57,0l1.77-1c.14-.09.13-.23,0-.33l-1.57-.9a.64.64,0,0,0-.57,0l-1.77,1C219,309.23,219,309.37,219.14,309.47Zm-2.53,1.46,1.57.91a.61.61,0,0,0,.57,0l1.76-1c.15-.08.13-.23,0-.33l-1.56-.9a.61.61,0,0,0-.57,0l-1.77,1C216.42,310.69,216.44,310.84,216.61,310.93Zm-2.54,1.47,1.57.9a.64.64,0,0,0,.57,0l1.77-1c.14-.09.13-.24,0-.33l-1.57-.91a.64.64,0,0,0-.57,0l-1.77,1C213.89,312.15,213.91,312.3,214.07,312.4Zm-2.53,1.46,1.57.91a.67.67,0,0,0,.57,0l1.76-1c.15-.08.13-.23,0-.33l-1.56-.9a.64.64,0,0,0-.57,0l-1.77,1C211.35,313.62,211.37,313.76,211.54,313.86ZM209,315.32l1.57.91a.61.61,0,0,0,.57,0l1.77-1c.15-.08.13-.23,0-.32L211.3,314a.61.61,0,0,0-.57,0L209,315C208.82,315.08,208.84,315.23,209,315.32Zm-2.53,1.47,1.57.9a.64.64,0,0,0,.57,0l1.76-1c.15-.09.13-.23,0-.33l-1.56-.91a.67.67,0,0,0-.57,0l-1.77,1C206.28,316.54,206.3,316.69,206.47,316.79Zm-2.54,1.46,1.57.91a.67.67,0,0,0,.57,0l1.77-1c.15-.08.13-.23,0-.33l-1.57-.9a.64.64,0,0,0-.57,0l-1.77,1C203.75,318,203.77,318.15,203.93,318.25Zm-2.53,1.47,1.57.9a.61.61,0,0,0,.57,0l1.76-1c.15-.08.13-.23,0-.32l-1.56-.91a.61.61,0,0,0-.57,0l-1.77,1C201.21,319.47,201.23,319.62,201.4,319.72ZM197.48,322l1.57.91a.65.65,0,0,0,.56,0l3.16-1.82c.15-.09.13-.23,0-.33l-1.57-.91a.67.67,0,0,0-.57,0l-3.15,1.82C197.29,321.74,197.31,321.88,197.48,322Zm32.32-15.8,1.57.9a.64.64,0,0,0,.57,0l1.77-1c.14-.09.12-.23,0-.33l-1.57-.91a.67.67,0,0,0-.57,0l-1.77,1C229.62,305.94,229.63,306.08,229.8,306.18Zm-2.53,1.46,1.57.91a.59.59,0,0,0,.56,0l1.77-1c.15-.08.13-.23,0-.33l-1.57-.9a.64.64,0,0,0-.57,0l-1.76,1C227.08,307.4,227.1,307.55,227.27,307.64Zm-2.54,1.47,1.57.9a.64.64,0,0,0,.57,0l1.77-1c.14-.08.12-.23,0-.32l-1.57-.91a.61.61,0,0,0-.57,0l-1.77,1C224.55,308.86,224.56,309,224.73,309.11Zm-2.53,1.46,1.57.91a.65.65,0,0,0,.56,0l1.77-1c.15-.09.13-.23,0-.33l-1.57-.91a.67.67,0,0,0-.57,0l-1.76,1C222,310.33,222,310.47,222.2,310.57ZM219.66,312l1.57.91a.61.61,0,0,0,.57,0l1.77-1c.14-.08.12-.23,0-.33l-1.57-.9a.64.64,0,0,0-.57,0l-1.77,1C219.48,311.79,219.49,311.94,219.66,312Zm-2.53,1.47,1.57.9a.62.62,0,0,0,.56,0l1.77-1c.15-.09.13-.24,0-.33l-1.57-.91a.61.61,0,0,0-.57,0l-1.76,1C216.94,313.25,217,313.4,217.13,313.5ZM214.59,315l1.57.91a.67.67,0,0,0,.57,0l1.77-1c.14-.09.12-.23,0-.33l-1.57-.9a.64.64,0,0,0-.57,0l-1.77,1C214.41,314.72,214.42,314.86,214.59,315Zm-2.53,1.46,1.57.91a.59.59,0,0,0,.56,0l1.77-1c.15-.08.13-.23,0-.33l-1.57-.9a.61.61,0,0,0-.57,0l-1.76,1C211.87,316.18,211.89,316.33,212.06,316.42Zm-2.54,1.47,1.57.9a.64.64,0,0,0,.57,0l1.77-1c.14-.09.12-.23,0-.33l-1.57-.91a.64.64,0,0,0-.57,0l-1.77,1C209.34,317.64,209.35,317.79,209.52,317.89ZM207,319.35l1.57.91a.65.65,0,0,0,.56,0l1.77-1c.15-.08.13-.23,0-.33l-1.57-.9a.62.62,0,0,0-.56,0L207,319C206.8,319.11,206.82,319.25,207,319.35Zm-2.54,1.46,1.57.91a.61.61,0,0,0,.57,0l1.77-1c.14-.08.12-.23,0-.32l-1.57-.91a.61.61,0,0,0-.57,0l-1.77,1C204.27,320.57,204.28,320.72,204.45,320.81Zm-4.49,2.6,1.56.91a.67.67,0,0,0,.57,0l3.73-2.15c.15-.09.13-.23,0-.33l-1.57-.91a.65.65,0,0,0-.56,0l-3.73,2.15C199.77,323.17,199.79,323.31,200,323.41Zm32.38-18.69,1.57.9a.59.59,0,0,0,.56,0l3.73-2.15c.15-.08.13-.23,0-.33l-1.57-.9a.62.62,0,0,0-.56,0l-3.73,2.16C232.15,304.47,232.17,304.62,232.34,304.72ZM231,308.34l1.57.91a.67.67,0,0,0,.57,0l1.77-1c.14-.08.12-.23,0-.33l-1.57-.9a.64.64,0,0,0-.57,0L231,308C230.83,308.1,230.84,308.24,231,308.34Zm-2.53,1.47,1.57.9a.59.59,0,0,0,.56,0l1.77-1c.15-.08.13-.23,0-.32l-1.57-.91a.59.59,0,0,0-.56,0l-1.77,1C228.29,309.56,228.31,309.71,228.48,309.81Zm-2.54,1.46,1.57.9a.64.64,0,0,0,.57,0l1.77-1c.14-.09.12-.23,0-.33l-1.57-.91a.67.67,0,0,0-.57,0l-1.77,1C225.76,311,225.77,311.17,225.94,311.27Zm-2.53,1.46,1.57.91a.59.59,0,0,0,.56,0l1.77-1c.15-.08.13-.23,0-.33l-1.57-.9a.62.62,0,0,0-.56,0l-1.77,1C223.22,312.49,223.24,312.64,223.41,312.73Zm-2.54,1.47,1.57.9a.64.64,0,0,0,.57,0l1.77-1c.14-.08.12-.23,0-.32l-1.57-.91a.61.61,0,0,0-.57,0l-1.77,1C220.69,314,220.7,314.1,220.87,314.2Zm-2.53,1.46,1.57.91a.65.65,0,0,0,.56,0l1.77-1c.15-.09.13-.23,0-.33l-1.57-.91a.65.65,0,0,0-.56,0l-1.77,1C218.15,315.42,218.17,315.56,218.34,315.66Zm-2.54,1.46,1.57.91a.61.61,0,0,0,.57,0l1.77-1c.14-.08.12-.23,0-.33l-1.57-.9a.64.64,0,0,0-.57,0l-1.77,1C215.62,316.88,215.63,317,215.8,317.12Zm-2.53,1.47,1.57.9a.62.62,0,0,0,.56,0l1.77-1c.15-.08.13-.23,0-.32l-1.57-.91a.59.59,0,0,0-.56,0l-1.77,1C213.08,318.34,213.1,318.49,213.27,318.59Zm-2.54,1.46,1.57.91a.67.67,0,0,0,.57,0l1.77-1c.14-.09.12-.23,0-.33l-1.57-.9a.64.64,0,0,0-.57,0l-1.77,1C210.55,319.81,210.56,320,210.73,320.05Zm-2.53,1.46,1.57.91a.59.59,0,0,0,.56,0l1.77-1c.15-.08.13-.23,0-.33l-1.57-.9a.59.59,0,0,0-.56,0l-1.77,1C208,321.27,208,321.42,208.2,321.51Zm-5.77,3.33,1.57.91a.67.67,0,0,0,.57,0l5-2.88c.14-.09.12-.24,0-.33l-1.57-.91a.64.64,0,0,0-.57,0l-5,2.88C202.25,324.6,202.27,324.74,202.43,324.84Zm31.12-18,1.57.9a.62.62,0,0,0,.56,0l5-2.89c.15-.08.13-.23,0-.33l-1.57-.9a.61.61,0,0,0-.57,0l-5,2.88C233.36,306.63,233.38,306.78,233.55,306.88Zm-24.77,19-1.57-.9a.64.64,0,0,0-.57,0l-1.77,1c-.14.09-.13.24,0,.33l1.57.91a.61.61,0,0,0,.57,0l1.77-1C209,326.1,208.94,326,208.78,325.85Zm2.53-1.46-1.57-.91a.65.65,0,0,0-.56,0l-1.77,1c-.15.09-.13.23,0,.33l1.57.9a.62.62,0,0,0,.56,0l1.77-1C211.5,324.63,211.48,324.49,211.31,324.39Zm2.54-1.46-1.57-.91a.61.61,0,0,0-.57,0l-1.77,1c-.14.08-.13.23,0,.33l1.57.9a.61.61,0,0,0,.57,0l1.77-1C214,323.17,214,323,213.85,322.93Zm2.53-1.47-1.57-.9a.62.62,0,0,0-.56,0l-1.77,1c-.15.09-.13.23,0,.33l1.57.91a.65.65,0,0,0,.56,0l1.77-1C216.57,321.71,216.55,321.56,216.38,321.46Zm16.6-9.58-1.57-.91a.67.67,0,0,0-.57,0l-1.77,1c-.14.09-.12.23,0,.33l1.57.9a.64.64,0,0,0,.57,0l1.77-1C233.16,312.12,233.15,312,233,311.88Zm2.53-1.46-1.57-.91a.59.59,0,0,0-.56,0l-1.77,1c-.15.08-.13.23,0,.33l1.57.9a.61.61,0,0,0,.57,0l1.76-1C235.7,310.66,235.68,310.51,235.51,310.42Zm2.54-1.47-1.57-.9a.64.64,0,0,0-.57,0l-1.77,1c-.14.09-.12.24,0,.33l1.57.91a.64.64,0,0,0,.57,0l1.77-1C238.23,309.2,238.22,309.05,238.05,309Zm1.66-1.82-2.05,1.18c-.07,0-.06.11,0,.15l.61.35a.64.64,0,0,0,.57,0l1.76-1c.15-.09.13-.23,0-.33l-.61-.35A.27.27,0,0,0,239.71,307.13Zm3.41-1.1-1.57-.91a.61.61,0,0,0-.57,0l-1.77,1c-.14.08-.12.23,0,.32l1.57.91a.61.61,0,0,0,.57,0l1.77-1C243.3,306.27,243.29,306.12,243.12,306Zm-5.53,2.24,2-1.18c.07,0,.06-.11,0-.15l-.62-.36a.65.65,0,0,0-.56,0l-1.77,1c-.15.09-.13.23,0,.33l.61.35A.27.27,0,0,0,237.59,308.27Zm-7.15,5.07-1.56-.9a.64.64,0,0,0-.57,0L215,320.09c-.14.08-.13.23,0,.33l1.57.9a.64.64,0,0,0,.57,0l13.29-7.68C230.63,313.59,230.61,313.44,230.44,313.34Z"/><polygon class="cls-4" points="415.8 345.78 376.53 368.45 337.51 345.92 376.78 323.25 415.8 345.78"/><polygon class="cls-3" points="376.53 410.55 376.53 368.45 415.8 345.78 415.8 387.88 376.53 410.55"/><polygon class="cls-8" points="337.51 345.92 337.51 388.02 376.53 410.55 376.53 368.45 337.51 345.92"/><polygon class="cls-57" points="399.73 336.5 392.81 332.51 353.55 355.18 360.47 359.18 399.73 336.5"/><polygon class="cls-38" points="353.55 371.88 360.47 375.88 360.47 359.18 353.55 355.18 353.55 371.88"/><path class="cls-33" d="M385.62,403l-5.73,3.31c-.66.38-1.2.07-1.2-.69v-6.57a2.67,2.67,0,0,1,1.2-2.08l5.73-3.31c.67-.38,1.21-.07,1.21.69v6.57A2.65,2.65,0,0,1,385.62,403Zm-5.73-5.65a1.93,1.93,0,0,0-.87,1.51v6.57c0,.56.39.78.87.5l5.73-3.31a1.89,1.89,0,0,0,.88-1.51v-6.57c0-.56-.39-.78-.88-.5Zm15.06.36L389.23,401c-.67.38-1.21.07-1.21-.69v-6.57a2.64,2.64,0,0,1,1.21-2.08l5.72-3.31c.67-.38,1.21-.08,1.21.69v6.57A2.65,2.65,0,0,1,395,397.72Zm-5.72-5.66a1.93,1.93,0,0,0-.88,1.52v6.57c0,.55.39.78.88.5l5.72-3.31a1.93,1.93,0,0,0,.88-1.51v-6.57c0-.56-.39-.78-.88-.5Zm-4.6,7.21-1.87-2-1.87,4.12.63-.36v2.32L384,402v-2.32Zm7.46-7.15a5.12,5.12,0,0,0-2.39,4l4.78-2.76C394.48,391.89,393.41,391.36,392.09,392.12Zm1.13,4-.33.19a.69.69,0,0,1-.32.55c-.17.1-.31,0-.31-.18v-2l-.33.19v2c0,.41.29.57.64.37A1.43,1.43,0,0,0,393.22,396.08Z"/><polygon class="cls-5" points="340.72 374.27 340.72 386.22 351.8 392.62 351.8 380.67 340.72 374.27"/><polygon class="cls-34" points="340.72 374.27 340.72 377.37 351.8 383.76 351.8 380.67 340.72 374.27"/><polygon class="cls-7" points="341.47 383.07 341.47 385.75 351.04 391.27 351.04 388.6 341.47 383.07"/><polygon class="cls-4" points="360.18 370.97 320.92 393.64 281.89 371.11 321.16 348.44 360.18 370.97"/><polygon class="cls-3" points="320.92 435.73 320.92 393.64 360.18 370.97 360.18 413.06 320.92 435.73"/><polygon class="cls-8" points="281.89 371.11 281.89 413.2 320.92 435.73 320.92 393.64 281.89 371.11"/><polygon class="cls-57" points="344.12 361.69 337.2 357.69 297.93 380.37 304.85 384.36 344.12 361.69"/><polygon class="cls-38" points="297.93 397.06 304.85 401.06 304.85 384.36 297.93 380.37 297.93 397.06"/><path class="cls-33" d="M330,428.2l-5.72,3.3c-.67.39-1.21.08-1.21-.68v-6.58a2.67,2.67,0,0,1,1.21-2.08l5.72-3.3c.67-.39,1.21-.08,1.21.68v6.58A2.67,2.67,0,0,1,330,428.2Zm-5.72-5.66a1.93,1.93,0,0,0-.88,1.51v6.58c0,.55.39.77.88.5l5.72-3.31a1.93,1.93,0,0,0,.88-1.51v-6.58c0-.55-.39-.78-.88-.5Zm15.06.36-5.73,3.31c-.67.39-1.21.08-1.21-.69V419a2.65,2.65,0,0,1,1.21-2.08l5.73-3.31c.66-.38,1.2-.07,1.2.69v6.57A2.65,2.65,0,0,1,339.34,422.9Zm-5.73-5.65a2,2,0,0,0-.88,1.51v6.57c0,.56.4.78.88.5l5.73-3.3a1.94,1.94,0,0,0,.87-1.52v-6.57c0-.55-.39-.78-.87-.5Zm-4.6,7.21-1.87-2-1.87,4.12.63-.37v2.33l2.48-1.44v-2.32Zm7.46-7.16a5.14,5.14,0,0,0-2.39,4l4.79-2.76C338.87,417.08,337.79,416.54,336.47,417.3Zm1.13,4-.33.19a.69.69,0,0,1-.31.54c-.18.11-.32,0-.32-.18v-2l-.33.19v2c0,.41.29.58.65.37A1.42,1.42,0,0,0,337.6,421.27Z"/><polygon class="cls-5" points="285.1 399.46 285.1 411.41 296.18 417.81 296.18 405.85 285.1 399.46"/><polygon class="cls-34" points="285.1 399.46 285.1 402.55 296.18 408.95 296.18 405.85 285.1 399.46"/><polygon class="cls-7" points="285.85 408.25 285.85 410.93 295.42 416.46 295.42 413.78 285.85 408.25"/></g></svg>